<svg xmlns="http://www.w3.org/2000/svg" viewBox="0 0 1000 1000"><defs><style>.cls-1{fill:#fff;}.cls-2{fill:#75a7da;}.cls-3{fill:#286fa4;}</style></defs><title>caribbeanintelligence</title><g id="Layer_2" data-name="Layer 2"><g id="Layer_1-2" data-name="Layer 1"><rect class="cls-1" width="1000" height="1000"/><path class="cls-2" d="M51,431.21V394.33H87.09A71.23,71.23,0,0,0,51,431.21Z"/><path class="cls-3" d="M178.86,512.75A9.67,9.67,0,0,1,186,516l55.74,56.62V394.33H145.57A71,71,0,0,1,185.28,476a9.76,9.76,0,0,1-9.49,7.46h-.06a9.73,9.73,0,0,1-9.65-9.83,9.46,9.46,0,0,1,.37-2.61,50.86,50.86,0,0,0,1.4-11.59A51.49,51.49,0,1,0,128.91,509h0a9.34,9.34,0,0,1,1.18-.07,9.78,9.78,0,0,1,2,19.34l-2.16.47-1.13.19A71.06,71.06,0,0,1,51,486.89v98.18H226.76l-54.62-55.46a9.73,9.73,0,0,1-3.09-7.11v-.1A9.73,9.73,0,0,1,178.86,512.75Zm-19.63.66A10.7,10.7,0,1,1,170,502.8,10.69,10.69,0,0,1,159.23,513.41Z"/><path class="cls-3" d="M352.52,424.52H331a13.36,13.36,0,0,0-5.27-9.44q-4.45-3.3-11.41-3.3-9.72,0-14.82,7.64-4.39,6.6-4.4,16.91t4.4,16.91q5.1,7.63,14.82,7.64,15.4,0,16.68-15.29h21.54q-.81,15.75-11.29,24.79t-26.46,9q-18.42,0-30-12.51-11.24-12.16-11.23-30.57T285,405.58q11.4-12.33,29.82-12.33a41.6,41.6,0,0,1,25.36,8.11Q352.05,410.39,352.52,424.52Z"/><path class="cls-3" d="M380.77,436.1H362.36q.93-20.27,28.49-20.27,12.73,0,19.34,3.71,8.69,4.86,8.68,16.44v26.29q0,10.65,2.32,15.4h-19.8a26,26,0,0,1-1.16-5.67q-7.07,7.41-19.8,7.41-9,0-14.59-4.4-5.91-4.87-5.91-13.78t6-13.44q4.51-3.46,13.78-5.09l15.17-2.32c3.48-.69,5.21-2.55,5.21-5.56q0-3.12-3.24-4.86a13.3,13.3,0,0,0-6.25-1.39Q382.16,428.57,380.77,436.1Zm-1.15,24.32q0,6.82,8.22,6.83,6.95,0,9.67-4.17t2.37-13.55c-1.23.77-3.86,1.55-7.87,2.32a36.23,36.23,0,0,0-8.34,2.31A6.69,6.69,0,0,0,379.62,460.42Z"/><path class="cls-3" d="M432.54,477.67v-60.1h19.1v10.54h.24q4.39-11.7,18.06-11.7a20.88,20.88,0,0,1,4.63.46v17.95a29.37,29.37,0,0,0-7.52-1.16q-6.94,0-10.89,4.12a14.11,14.11,0,0,0-3.94,10.13v29.76Z"/><path class="cls-3" d="M501.56,395V410H481.87V395Zm-19.69,82.68v-60.1h19.69v60.1Z"/><path class="cls-3" d="M515.45,477.67V395h19.69v29.18h.23q6.14-8.34,17.14-8.34,12,0,19.11,9.38,6.25,8.46,6.25,21.08,0,13.89-6.37,22.93-7.18,10.18-20.5,10.19a18.91,18.91,0,0,1-16.56-8.69h-.23v6.95Zm31-46.78a10.68,10.68,0,0,0-8,3.35q-4.07,4.29-4.06,12.74,0,17.37,11.93,17.37,6,0,9.27-5.56A24.84,24.84,0,0,0,558.18,447a21.08,21.08,0,0,0-2.54-10.88A10,10,0,0,0,546.49,430.89Z"/><path class="cls-3" d="M588.41,477.67V395H608.1v29.18h.23q6.13-8.34,17.14-8.34a22.68,22.68,0,0,1,19.1,9.38q6.25,8.46,6.26,21.08,0,13.89-6.37,22.93-7.19,10.18-20.5,10.19a18.91,18.91,0,0,1-16.56-8.69h-.23v6.95Zm31-46.78a10.7,10.7,0,0,0-8,3.35q-4.05,4.29-4.05,12.74,0,17.37,11.93,17.37,6,0,9.26-5.56A24.72,24.72,0,0,0,631.14,447a21,21,0,0,0-2.55-10.88A10,10,0,0,0,619.44,430.89Z"/><path class="cls-3" d="M722.28,452.43H678.16q.23,6.24,3.76,9.95t9.67,3.71q8.45,0,11.23-6.6h18.42A24.35,24.35,0,0,1,710,474.66a35.46,35.46,0,0,1-18.64,4.75q-14.94,0-23.74-8.46-9.15-8.56-9.15-23.5a29.83,29.83,0,0,1,9.61-22.7,31.62,31.62,0,0,1,22.81-8.92q15.65,0,24.09,10.65Q723,436.46,722.28,452.43Zm-44.12-11h24.43a13.29,13.29,0,0,0-3.53-8.68,10.66,10.66,0,0,0-8.17-3.59,11.46,11.46,0,0,0-8.45,3.36A15.86,15.86,0,0,0,678.16,441.42Z"/><path class="cls-3" d="M749.72,436.1H731.31q.93-20.27,28.49-20.27,12.74,0,19.34,3.71,8.68,4.86,8.68,16.44v26.29q0,10.65,2.32,15.4h-19.8a26,26,0,0,1-1.16-5.67q-7.06,7.41-19.81,7.41-9,0-14.59-4.4-5.91-4.87-5.9-13.78t6-13.44q4.51-3.46,13.78-5.09l15.17-2.32c3.47-.69,5.21-2.55,5.21-5.56q0-3.12-3.24-4.86a13.3,13.3,0,0,0-6.25-1.39Q751.11,428.57,749.72,436.1Zm-1.16,24.32q0,6.82,8.23,6.83,6.94,0,9.67-4.17t2.37-13.55c-1.24.77-3.86,1.55-7.87,2.32a36.23,36.23,0,0,0-8.34,2.31A6.69,6.69,0,0,0,748.56,460.42Z"/><path class="cls-3" d="M800.79,477.67v-60.1H819.9v8.22h.23a19,19,0,0,1,8-7.24A23.73,23.73,0,0,1,839,415.83q21.65,0,21.65,23.28v38.56H841V448.6q0-8.91-.92-11.35-1.86-5.21-8.92-5.21A9.48,9.48,0,0,0,823,436a14.7,14.7,0,0,0-2.55,8.92v32.77Z"/><path class="cls-3" d="M277.64,585.67V503h21.54v82.68Z"/><path class="cls-3" d="M313.3,585.67v-60.1h19.11v8.22h.23a19,19,0,0,1,8-7.23,23.62,23.62,0,0,1,10.89-2.73q21.64,0,21.65,23.28v38.56H353.49V556.61q0-8.93-.93-11.35-1.86-5.22-8.92-5.21a9.47,9.47,0,0,0-8.1,3.93A14.7,14.7,0,0,0,333,552.9v32.77Z"/><path class="cls-3" d="M422.5,525.57v12.74H410.34v27.33q0,5.79,7.07,5.79.81,0,2.49-.12c1.12-.07,2-.11,2.6-.11v14.47c-.92,0-2.7.12-5.32.35-2.32.16-4.13.23-5.45.23q-12.5,0-16.79-4.4t-4.28-16.79V538.31h-10V525.57h10V507.39h19.68v18.18Z"/><path class="cls-3" d="M492.22,560.43H448.1q.22,6.26,3.76,10t9.67,3.7q8.46,0,11.23-6.6h18.42a24.32,24.32,0,0,1-11.24,15.17,35.36,35.36,0,0,1-18.64,4.75q-14.94,0-23.74-8.45-9.15-8.57-9.15-23.51a29.83,29.83,0,0,1,9.61-22.7,31.67,31.67,0,0,1,22.82-8.92q15.63,0,24.08,10.66Q492.92,544.45,492.22,560.43Zm-44.12-11h24.43a13.31,13.31,0,0,0-3.53-8.69,10.65,10.65,0,0,0-8.16-3.59,11.47,11.47,0,0,0-8.46,3.36A15.86,15.86,0,0,0,448.1,549.43Z"/><path class="cls-3" d="M502.76,585.67V503h19.68v82.68Z"/><path class="cls-3" d="M537,585.67V503h19.69v82.68Z"/><path class="cls-3" d="M591,503v15H571.31V503Zm-19.69,82.68v-60.1H591v60.1Z"/><path class="cls-3" d="M663,525.57v52.81q0,28.36-30,28.37-12.27,0-19.1-3.59-8.8-4.63-10.43-15.63h19.69q1.15,6.48,10.54,6.48,6.36,0,8.68-4.17c1.08-2,1.62-5.28,1.62-9.84v-5.68h-.23a18,18,0,0,1-16,8.81q-13.08,0-20-8.57-6.37-7.87-6.37-21.31,0-12.51,6.83-20.73,7.29-8.68,19.57-8.69,10.89,0,16.1,9.27h.23v-7.53Zm-18.65,28.49q0-6.48-2.55-10.42a10.35,10.35,0,0,0-9.26-4.75,10,10,0,0,0-9,4.75q-2.43,3.93-2.43,10.3a16.6,16.6,0,0,0,2.66,9.73,9.86,9.86,0,0,0,8.68,4.4,10.92,10.92,0,0,0,9.15-4.17Q644.39,560.19,644.38,554.06Z"/><path class="cls-3" d="M736.56,560.43H692.44q.22,6.26,3.76,10t9.67,3.7q8.46,0,11.24-6.6h18.41a24.31,24.31,0,0,1-11.23,15.17,35.4,35.4,0,0,1-18.65,4.75q-14.94,0-23.74-8.45-9.15-8.57-9.15-23.51a29.8,29.8,0,0,1,9.62-22.7,31.64,31.64,0,0,1,22.81-8.92q15.63,0,24.09,10.66Q737.25,544.45,736.56,560.43Zm-44.12-11h24.44a13.37,13.37,0,0,0-3.54-8.69,10.65,10.65,0,0,0-8.16-3.59,11.47,11.47,0,0,0-8.46,3.36A15.92,15.92,0,0,0,692.44,549.43Z"/><path class="cls-3" d="M746.41,585.67v-60.1h19.1v8.22h.23a19,19,0,0,1,8-7.23,23.61,23.61,0,0,1,10.88-2.73q21.66,0,21.66,23.28v38.56H786.59V556.61q0-8.93-.93-11.35c-1.23-3.48-4.21-5.21-8.91-5.21a9.49,9.49,0,0,0-8.11,3.93,14.7,14.7,0,0,0-2.55,8.92v32.77Z"/><path class="cls-3" d="M877.61,547.58H858.5a8.28,8.28,0,0,0-3-6.2,9.77,9.77,0,0,0-6.66-2.49q-12.74,0-12.74,17.72a19.46,19.46,0,0,0,2.78,10.77,10,10,0,0,0,8.92,5q9.72,0,11.23-10.31h19.11q-1.28,11.82-9.61,18.59T848,587.41q-13.68,0-22.59-8.57t-8.91-22.23q0-14.48,8.56-23.63T848,523.83q11.81,0,19.91,5.91A24,24,0,0,1,877.61,547.58Z"/><path class="cls-3" d="M948.94,560.43H904.82q.24,6.26,3.77,10t9.67,3.7q8.44,0,11.23-6.6H947.9a24.31,24.31,0,0,1-11.23,15.17A35.36,35.36,0,0,1,918,587.41q-14.94,0-23.75-8.45-9.13-8.57-9.14-23.51a29.83,29.83,0,0,1,9.61-22.7,31.64,31.64,0,0,1,22.81-8.92q15.63,0,24.09,10.66Q949.65,544.45,948.94,560.43Zm-44.12-11h24.44a13.36,13.36,0,0,0-3.53-8.69,10.67,10.67,0,0,0-8.17-3.59,11.45,11.45,0,0,0-8.45,3.36A15.93,15.93,0,0,0,904.82,549.43Z"/></g></g></svg>