<svg xmlns="http://www.w3.org/2000/svg" viewBox="0 0 996 996"><defs><style>.cls-1{fill:#fff;}</style></defs><title>oryx</title><g id="Layer_2" data-name="Layer 2"><g id="Layer_1-2" data-name="Layer 1"><rect class="cls-1" width="996" height="996"/><path d="M498.1,723C374,723,272.52,621.28,272.93,497.71,273.36,370.5,378.32,271.35,501.13,273,623.05,274.68,725.21,375.65,723,502,721,620.68,624.83,722.07,498.1,723ZM707.22,493.2c-3-116.13-100.68-211.26-221.18-204-122,7.31-196.94,110.17-196.8,203.92h47V503H288.94c2,112.47,97.57,208,216.31,204,115-3.93,201.1-100.21,201.61-204.25h-47.1v-9.5Z"/><path d="M520.79,630c-7.35,0-13.72-.27-20,.09-4.19.25-5.88-1.48-7.21-5.21-3.93-11.08-4.09-11-15.68-11a31.58,31.58,0,0,1-4.46,0c-10.65-1.51-19.18.12-21.14,13-.19,1.26-2.94,2.94-4.57,3-7,.34-13.94.14-21.54.14.71-2.27,1.17-4.07,1.83-5.78,10.17-26.51,20.45-53,30.45-79.53,1.6-4.23,3.66-6,8.27-5.68,6.53.5,14.69-1.93,19.24,1.17s5.53,11.39,7.85,17.5q12.44,32.67,24.69,65.4C519.2,625,519.79,627,520.79,630Zm-47.11-62.63c-3.5,10.4-6.45,19.15-9.47,28.1H483Z"/><path d="M353.16,621.75l9.6-18c6,2.68,11.59,5.59,17.48,7.61a12.25,12.25,0,0,0,8.57-.36c2.67-1.34,5.95-4.27,6.21-6.8s-2.29-6.39-4.71-7.8c-4.11-2.4-9.05-3.39-13.69-4.87-15.71-5-20.26-11.34-19.56-27.42a27.94,27.94,0,0,1,22.52-26.51c13-2.64,25.15.25,37.18,6.54-3.13,6.14-6.07,11.93-9,17.7-4.42-1.69-8.38-3.77-12.59-4.63a16,16,0,0,0-9.15,1c-5.6,2.46-5.91,8.22-.58,11.28,3.8,2.17,8.2,3.37,12.43,4.67,17.49,5.42,23.83,13.75,22.37,29.65s-11.4,25.75-28,27.85C378.21,633.42,365.4,630.2,353.16,621.75Z"/><path d="M391.23,380.22c22.25,0,39.25,15.75,39.28,36.35,0,22.71-16.64,39.17-39.54,39-22.69-.13-38.83-16.34-38.81-39C352.19,395.82,368.93,380.22,391.23,380.22ZM411,417.38c.23-10.37-8.6-19.11-19.45-19.26-10.4-.15-19.7,8.27-20,18.11-.37,11.14,8.3,20.77,19.17,21.28C401.26,438,410.71,428.63,411,417.38Z"/><path d="M479.31,424.67c7.15,9.38,13.93,18.27,21.63,28.35-8.06,0-14.92.2-21.75-.17-1.36-.08-2.88-2.13-3.86-3.59-4.63-6.94-9.1-14-14.81-20.65v24.11h-18V383.09c11.8,0,23.46-.78,34.95.23,9.61.85,15.27,8,16.39,17.56C495.18,412.37,491.11,419.26,479.31,424.67Zm-18.54-9.25c4.92-2.25,9.41-3.35,12.44-6.08,1.46-1.31,1.19-6.29-.13-8.54-2.64-4.53-7.54-4.23-12.31-3.72Z"/><path d="M599.2,629.58v-70.3H580.06v-19.8h62.06v19.31h-19v70.79Z"/><path d="M606.86,400.2c3-5.1,5.66-9.15,7.83-13.44,1.78-3.51,4.22-4.73,8.09-4.5,5.41.32,10.86.08,17.69.08-7,10.23-13,19.37-19.46,28.2-2.5,3.44-2.71,5.81-.09,9.4,7.71,10.52,15,21.38,23.08,33.12-7.59,0-13.89.24-20.15-.16-1.63-.1-3.57-1.88-4.63-3.4-4.08-5.9-7.87-12-12.37-18.95-4.61,6.49-9,12.28-13,18.36-2.1,3.21-4.46,4.5-8.31,4.25-5.27-.35-10.59-.09-16.75-.09,1-1.82,1.69-3.22,2.58-4.45,7.1-9.77,14.13-19.6,21.46-29.19,2.29-3,2.47-5.1.22-8.23-6.56-9.09-12.76-18.43-19.87-28.8,7.76,0,14.46-.2,21.14.17,1.39.07,3,2,4,3.46C601.09,390.28,603.59,394.71,606.86,400.2Z"/><path d="M530.75,629.66V539.53h23.77v69.81H582.4v20.32Z"/><path d="M568.12,382.34c-8.36,11.77-15.87,22-23,32.56a18.8,18.8,0,0,0-3,9.26c-.39,9.3-.14,18.63-.14,28.43h-18.9c0-9.66.21-19.15-.13-28.62a17.5,17.5,0,0,0-2.77-8.69c-7.22-10.69-14.81-21.13-23.11-32.84,7.78,0,14.45-.21,21.09.17,1.41.08,2.91,2.18,4,3.64,3.45,4.75,6.73,9.62,10.39,14.9,3.47-5,6.86-9.38,9.63-14.1,2.24-3.83,5.11-5.06,9.37-4.79C556.59,382.59,561.64,382.34,568.12,382.34Z"/><path d="M354.79,524.63v-58c10.08.58,20.15.06,29.71,2,13.1,2.64,21.66,15.67,21,29-.72,13.64-10.88,25.39-24.47,26.86C372.44,525.38,363.72,524.63,354.79,524.63Zm15.28-13.07c7.79,1.07,14-.63,17.46-7.27,3.08-6,3-12.44-1.11-18-3.95-5.39-9.66-6.82-16.35-5.73Z"/><path d="M583.68,502.27l17.6,23.1c-8.09-1.63-15.55,3-21-3.14-4.4-5-7.44-11.22-12.25-16.76v19.15H552.75V467.41c9.34,0,18.42-.61,27.39.17,8.8.76,13.69,6,15.08,13.95,1.47,8.33-1.84,14.77-9.87,19.28A12.36,12.36,0,0,0,583.68,502.27Zm-15.59-10c7.76.8,10.95-1,11.14-6,.2-5.25-3.21-7.43-11.14-6.87Z"/><path d="M508.77,467.39H541V480H530.81c-7.88,0-7.94.11-6.41,9.24h15.76v13.24H523.94v9.27h17v12.84H508.77Z"/><path d="M456.1,520l6.07-11.35c4.63,1.71,8.82,4,13.23,4.56,2.34.27,5.06-2.58,7.61-4-1.67-2.13-3-4.68-5.11-6.27-1.74-1.33-4.34-1.53-6.56-2.26-10.37-3.38-13.74-8.23-12.64-18.15,1-9.39,7.58-16.41,17.07-16.54,6.76-.1,13.55,1.66,21.65,2.77-2.63,5.44-4.42,9.12-6.13,12.67-4-1-7.53-2.44-11.13-2.6-1.76-.07-3.63,2.21-5.46,3.43,1.23,1.73,2.1,4.11,3.78,5.06,2.71,1.53,6,2,8.95,3.13,8.23,3.08,11.35,7.17,11.48,14.83.18,10-3.24,16-11.35,19.28C476.58,528.9,466.46,526.5,456.1,520Z"/><path d="M447.2,467.5v12.37H430.05v9.47h16.28V502.5H430.05v9.22H447v12.84H414.71V467.5Z"/><path d="M630.46,524.71H615v-44.3l-12-.7V467.34h39.35v12.37l-11.82.64Z"/><path d="M657.48,383.47v5.27H649.1v-6.19Z"/></g></g></svg>