<svg xmlns="http://www.w3.org/2000/svg" viewBox="0 0 475.4 250.03"><defs><style>.cls-1,.cls-2,.cls-3{fill:#fff;}.cls-2,.cls-3{stroke:#fff;stroke-miterlimit:10;}.cls-2{stroke-width:1px;}</style></defs><title>Primary-White</title><g id="Layer_2" data-name="Layer 2"><g id="Primary_-_White" data-name="Primary - White"><g id="Primary_White" data-name="Primary White"><path class="cls-1" d="M309.46,67.48c0,19.71-16.32,35.74-36.38,35.74a36.36,36.36,0,0,1-29-14.15,4,4,0,0,1,6.31-4.88,28.41,28.41,0,0,0,22.68,11.06c15.67,0,28.41-12.46,28.41-27.77s-12.74-27.76-28.41-27.76-28.4,12.45-28.4,27.76c0,19.71-16.32,35.74-36.38,35.74s-36.38-16-36.38-35.74a35.79,35.79,0,0,1,21.49-32.61,4,4,0,0,1,3.22,7.3A27.78,27.78,0,0,0,179.9,67.48c0,15.31,12.74,27.77,28.4,27.77s28.41-12.46,28.41-27.77c0-19.7,16.32-35.73,36.37-35.73S309.46,47.78,309.46,67.48Z"/><path class="cls-1" d="M272.07,26.85a4,4,0,0,1-5.26-2.05A28.42,28.42,0,0,0,240.69,8c-15.66,0-28.4,12.45-28.4,27.76a27.5,27.5,0,0,0,10,21.11A4,4,0,0,1,217.13,63a35.42,35.42,0,0,1-12.81-27.23C204.32,16,220.63,0,240.69,0a36.38,36.38,0,0,1,33.42,21.6A4,4,0,0,1,272.07,26.85Z"/><path class="cls-2" d="M30.53,138a8.11,8.11,0,0,0-4.8,1.23A4.21,4.21,0,0,0,24,142.91a4.84,4.84,0,0,0,2.48,4,30.93,30.93,0,0,0,6.6,3.25,27.56,27.56,0,0,1,5.73,2.8,12.58,12.58,0,0,1,4,4.35,14,14,0,0,1,1.57,7,12.8,12.8,0,0,1-1.9,6.79,13.19,13.19,0,0,1-5.57,5,19.43,19.43,0,0,1-8.76,1.83,29.09,29.09,0,0,1-8.43-1.25,26.47,26.47,0,0,1-7.8-3.83L16,165.51a22.4,22.4,0,0,0,5.6,3,16.46,16.46,0,0,0,5.67,1.16,10.26,10.26,0,0,0,5.15-1.25,4.35,4.35,0,0,0,2.19-4.09q0-3.67-6.89-6.38A59.87,59.87,0,0,1,21,154.82a13.84,13.84,0,0,1-4.67-4.25,11.73,11.73,0,0,1-2-7,12.79,12.79,0,0,1,4-9.85q4-3.73,10.72-4.06a27.79,27.79,0,0,1,8.82,1.2,29.92,29.92,0,0,1,6.89,3.38l-3.54,7.15Q35.1,138,30.53,138Z"/><path class="cls-2" d="M62.85,130v47.4H53.52V130Z"/><path class="cls-2" d="M84.43,130v38.38h22.28v9H75.09V130Z"/><path class="cls-2" d="M145.93,130l-21.64,49.59L102.65,130h11.21l10.82,26.73L134.85,130Z"/><path class="cls-2" d="M186.44,130v9h-23v10.11h20.35v9H163.44v10.24h23.9v9H154.11V130Z"/><path class="cls-2" d="M222.56,177.36l-10-15.07h-6.25v15.07H197V130h14.36q8.82,0,13.68,4.29t4.86,11.68a18.79,18.79,0,0,1-1.83,8.21,13.62,13.62,0,0,1-5.64,6l11,17.19Zm-16.23-24.09H213q3.79,0,5.53-2.22a7.62,7.62,0,0,0,1.74-4.79,9.09,9.09,0,0,0-1.48-4.93Q217.28,139,213,139h-6.7Z"/><path class="cls-2" d="M269.38,176.39a24.07,24.07,0,0,1-8.57,1.48,25,25,0,0,1-12.88-3.21,21.86,21.86,0,0,1-8.37-8.67,25,25,0,0,1-2.9-11.94,27.34,27.34,0,0,1,2.9-12.75,21.34,21.34,0,0,1,8.12-8.73,23,23,0,0,1,12-3.12,26.13,26.13,0,0,1,8,1.16,27.91,27.91,0,0,1,6.44,2.89l-3.67,8.83A17.05,17.05,0,0,0,260,138.46a12.43,12.43,0,0,0-6.76,2,14.39,14.39,0,0,0-5,5.44,15.7,15.7,0,0,0-1.87,7.63,17.58,17.58,0,0,0,1.74,8,12.9,12.9,0,0,0,5,5.38,14.39,14.39,0,0,0,7.53,1.93,16.49,16.49,0,0,0,6.25-1.13,13.87,13.87,0,0,0,4.38-2.67l3.86,8.37A20.67,20.67,0,0,1,269.38,176.39Z"/><path class="cls-2" d="M293.78,130v38.38h22.29v9H284.45V130Z"/><path class="cls-2" d="M324.79,141.68a24.67,24.67,0,0,1,8.83-8.92,23.68,23.68,0,0,1,24.15,0,25.21,25.21,0,0,1,8.88,8.92,23.62,23.62,0,0,1,0,24.15,24.69,24.69,0,0,1-8.88,8.79,24.13,24.13,0,0,1-24.19,0,24.29,24.29,0,0,1-8.79-8.79,24.06,24.06,0,0,1,0-24.15Zm8.38,19.64a14.71,14.71,0,0,0,5.34,5.51,14.33,14.33,0,0,0,7.5,2,13.61,13.61,0,0,0,7.28-2,14.33,14.33,0,0,0,5.15-5.47,16.47,16.47,0,0,0-.06-15.36,14.71,14.71,0,0,0-5.25-5.51,14.41,14.41,0,0,0-14.75,0,14.71,14.71,0,0,0-5.25,5.51,15.72,15.72,0,0,0-1.93,7.73A15.15,15.15,0,0,0,333.17,161.32Z"/><path class="cls-2" d="M389,164.16a10.4,10.4,0,0,0,3.61,3.35,9.54,9.54,0,0,0,4.83,1.28,10.32,10.32,0,0,0,5.09-1.28,10,10,0,0,0,3.63-3.35,7.89,7.89,0,0,0,1.32-4.32V130h9.21V160a16.88,16.88,0,0,1-2.57,9.17,17.72,17.72,0,0,1-7,6.38,21.67,21.67,0,0,1-19.35,0,17.55,17.55,0,0,1-6.93-6.38,17,17,0,0,1-2.54-9.17V130h9.34v29.88A7.77,7.77,0,0,0,389,164.16Z"/><path class="cls-2" d="M428,130h14.17q9.07,0,14.94,3.51a21.23,21.23,0,0,1,8.53,9.08,27.32,27.32,0,0,1,2.67,11.95,22.51,22.51,0,0,1-3.21,12,21.67,21.67,0,0,1-8.67,8,25.68,25.68,0,0,1-11.94,2.8H428Zm14.88,38.38q7.28,0,11.52-3.73t4.26-10.76c0-3.77-.79-6.78-2.36-9a12.65,12.65,0,0,0-5.47-4.64,15.47,15.47,0,0,0-5.89-1.29h-7.6v29.43Z"/><path class="cls-2" d="M151.26,246.77a16.76,16.76,0,0,1-5,.74,17.59,17.59,0,0,1-9-2.3,16.2,16.2,0,0,1-6.1-6.22,17.43,17.43,0,0,1-2.17-8.61,18.06,18.06,0,0,1,2.24-8.94A16.78,16.78,0,0,1,146,212.78a17.58,17.58,0,0,1,9.28,2.58l-1,2.15a15.43,15.43,0,0,0-8.23-2.48,14.06,14.06,0,0,0-7.37,2,14.78,14.78,0,0,0-5.38,5.55,15.37,15.37,0,0,0-2,7.68,15.81,15.81,0,0,0,1.82,7.53,13.84,13.84,0,0,0,5.17,5.43,14.74,14.74,0,0,0,7.75,2,15.27,15.27,0,0,0,8.28-2.44l1.1,2.06A19.55,19.55,0,0,1,151.26,246.77Z"/><path class="cls-2" d="M183.16,247.13l-8.89-14.45a13.78,13.78,0,0,1-2.54.19h-5.26v14.26h-2.34v-34h7.74a13,13,0,0,1,5.15,1.05,9.44,9.44,0,0,1,4,3.21,8.94,8.94,0,0,1,1.55,5.36,11.21,11.21,0,0,1-1.43,5.62,8.37,8.37,0,0,1-4.45,3.66l9.18,15.07Zm-4.95-18.81a8,8,0,0,0,2-5.45,7.45,7.45,0,0,0-1-3.73,7.08,7.08,0,0,0-2.8-2.73,8.57,8.57,0,0,0-4.21-1h-5.74v15.21h5.12C174.68,230.62,176.89,229.86,178.21,228.32Z"/><path class="cls-2" d="M215.36,213.16v2.25H196.75V228.9h16.74v2.25H196.75v13.73H216v2.25H194.41v-34Z"/><path class="cls-2" d="M243.82,235.88h-15l-4.5,11.25H222l14.35-35.45h.19l14.36,35.45h-2.64Zm-.86-2.2L236.41,217l-6.7,16.69Z"/><path class="cls-2" d="M275.73,213.16v2.25h-10v31.72h-2.34V215.41h-9.9v-2.25Z"/><path class="cls-2" d="M286.16,213.16v34h-2.34v-34Z"/><path class="cls-2" d="M322.81,213.16,308.36,248.7l-14.45-35.54h2.73l11.86,30,11.63-30Z"/><path class="cls-2" d="M351.51,213.16v2.25H332.9V228.9h16.74v2.25H332.9v13.73h19.28v2.25H330.56v-34Z"/><line class="cls-3" x1="475.4" y1="194.2" y2="194.2"/></g></g></g></svg>