<svg xmlns="http://www.w3.org/2000/svg" viewBox="0 0 996 996"><defs><style>.cls-1{fill:#fff;}.cls-2{fill:#1e76b0;}</style></defs><title>silvercloud</title><g id="Layer_2" data-name="Layer 2"><g id="Layer_1-2" data-name="Layer 1"><rect class="cls-1" width="996" height="996"/><path class="cls-2" d="M305.67,477.62a10.91,10.91,0,0,0-6.45,1.65,5.66,5.66,0,0,0-2.29,4.93c0,2,1.1,3.79,3.33,5.32a41.33,41.33,0,0,0,8.87,4.37,36.58,36.58,0,0,1,7.7,3.77,16.73,16.73,0,0,1,5.32,5.84,18.78,18.78,0,0,1,2.12,9.43,17.24,17.24,0,0,1-2.55,9.13,17.87,17.87,0,0,1-7.48,6.67,26.15,26.15,0,0,1-11.78,2.46,39.42,39.42,0,0,1-11.33-1.68,35.76,35.76,0,0,1-10.48-5.15l5.54-9.78a30.6,30.6,0,0,0,7.53,4,22.39,22.39,0,0,0,7.62,1.56,13.72,13.72,0,0,0,6.92-1.69,5.87,5.87,0,0,0,2.95-5.5q0-4.93-9.26-8.57a81.32,81.32,0,0,1-9.09-4.15,18.78,18.78,0,0,1-6.28-5.71,15.77,15.77,0,0,1-2.64-9.35q0-8.22,5.41-13.24t14.41-5.45a37.57,37.57,0,0,1,11.86,1.6,40.72,40.72,0,0,1,9.26,4.54l-4.76,9.61Q311.81,477.62,305.67,477.62Z"/><path class="cls-2" d="M349.11,466.8v63.7H336.56V466.8Z"/><path class="cls-2" d="M378.11,466.8v51.59h29.94V530.5H365.56V466.8Z"/><path class="cls-2" d="M460.76,466.8l-29.08,66.64L402.6,466.8h15l14.54,35.92,13.68-35.92Z"/><path class="cls-2" d="M515.19,466.8v12.12H484.3v13.59h27.34v12.11H484.3v13.77h32.1V530.5H471.75V466.8Z"/><path class="cls-2" d="M563.74,530.5l-13.41-20.25h-8.4V530.5H529.38V466.8h19.31q11.85,0,18.39,5.76t6.53,15.71a25.12,25.12,0,0,1-2.47,11,18.3,18.3,0,0,1-7.57,8.09l14.8,23.11Zm-21.81-32.37h8.92q5.1,0,7.44-3a10.25,10.25,0,0,0,2.34-6.45,12.29,12.29,0,0,0-2-6.62q-2-3.16-7.7-3.16h-9Z"/><path class="cls-2" d="M626.66,529.2a32.28,32.28,0,0,1-11.51,2,33.59,33.59,0,0,1-17.31-4.32,29.4,29.4,0,0,1-11.25-11.64,33.6,33.6,0,0,1-3.89-16.06A36.7,36.7,0,0,1,586.59,482a28.75,28.75,0,0,1,10.91-11.73,30.84,30.84,0,0,1,16.18-4.2,35.45,35.45,0,0,1,10.73,1.56,37.77,37.77,0,0,1,8.66,3.89l-4.94,11.86q-6.84-5.19-14-5.19a16.7,16.7,0,0,0-9.09,2.68,19.59,19.59,0,0,0-6.75,7.31,21.23,21.23,0,0,0-2.51,10.26,23.54,23.54,0,0,0,2.34,10.77,17.33,17.33,0,0,0,6.67,7.23,19.29,19.29,0,0,0,10.12,2.6,22.14,22.14,0,0,0,8.4-1.52,18.32,18.32,0,0,0,5.88-3.59l5.2,11.25A28.07,28.07,0,0,1,626.66,529.2Z"/><path class="cls-2" d="M659.46,466.8v51.59h29.95V530.5h-42.5V466.8Z"/><path class="cls-2" d="M701.13,482.55a33.06,33.06,0,0,1,11.86-12,31.76,31.76,0,0,1,32.46,0,33.68,33.68,0,0,1,11.94,12,31.76,31.76,0,0,1,0,32.46,33.21,33.21,0,0,1-11.94,11.81,32.4,32.4,0,0,1-32.5,0A32.72,32.72,0,0,1,701.13,515a32.32,32.32,0,0,1,0-32.46ZM712.39,509a19.77,19.77,0,0,0,7.18,7.4,19.2,19.2,0,0,0,10.08,2.73,18.21,18.21,0,0,0,9.78-2.73,19.29,19.29,0,0,0,6.92-7.36,22.16,22.16,0,0,0-.08-20.64,19.89,19.89,0,0,0-7-7.4,19.41,19.41,0,0,0-19.82,0,19.76,19.76,0,0,0-7.06,7.4,21,21,0,0,0-2.59,10.39A20.39,20.39,0,0,0,712.39,509Z"/><path class="cls-2" d="M787.46,512.76a13.91,13.91,0,0,0,4.85,4.5A12.9,12.9,0,0,0,798.8,519a13.91,13.91,0,0,0,6.84-1.73,13.3,13.3,0,0,0,4.89-4.5,10.62,10.62,0,0,0,1.77-5.8V466.8h12.38v40.42a22.7,22.7,0,0,1-3.46,12.33,23.83,23.83,0,0,1-9.39,8.57,27.9,27.9,0,0,1-13,3.07,27.59,27.59,0,0,1-13-3.07,23.61,23.61,0,0,1-9.31-8.57,22.92,22.92,0,0,1-3.41-12.33V466.8h12.54V507A10.44,10.44,0,0,0,787.46,512.76Z"/><path class="cls-2" d="M839.82,466.8h19q12.21,0,20.08,4.72a28.56,28.56,0,0,1,11.47,12.2A36.72,36.72,0,0,1,894,499.78,30.12,30.12,0,0,1,889.67,516,29.05,29.05,0,0,1,878,526.74a34.51,34.51,0,0,1-16,3.76H839.82Zm20,51.59q9.78,0,15.5-5T881,498.91q0-7.61-3.16-12.11a17.08,17.08,0,0,0-7.36-6.24,20.9,20.9,0,0,0-7.92-1.73H852.37v39.56Z"/><path class="cls-2" d="M252.52,515.37c0,21.58-17.87,39.11-39.82,39.11A39.79,39.79,0,0,1,181,539a4.36,4.36,0,0,1,6.91-5.33,31.1,31.1,0,0,0,24.82,12.09c17.15,0,31.09-13.63,31.09-30.39S229.85,485,212.7,485s-31.09,13.64-31.09,30.38c0,21.58-17.85,39.11-39.8,39.11S102,537,102,515.37a39.15,39.15,0,0,1,23.51-35.68,4.36,4.36,0,0,1,3.52,8,30.43,30.43,0,0,0-18.31,27.7c0,16.76,13.94,30.39,31.09,30.39s31.08-13.63,31.08-30.39c0-21.56,17.86-39.1,39.81-39.1S252.52,493.81,252.52,515.37Z"/><path class="cls-2" d="M211.59,470.92a4.37,4.37,0,0,1-5.75-2.25,31.08,31.08,0,0,0-28.58-18.42c-17.14,0-31.09,13.62-31.09,30.38a30.08,30.08,0,0,0,10.89,23.1,4.37,4.37,0,1,1-5.6,6.7,38.84,38.84,0,0,1-14-29.8c0-21.57,17.87-39.11,39.82-39.11a39.82,39.82,0,0,1,36.57,23.64A4.37,4.37,0,0,1,211.59,470.92Z"/></g></g></svg>