<svg xmlns="http://www.w3.org/2000/svg" viewBox="0 0 996 996"><defs><style>.cls-1{fill:#fff;}</style></defs><title>caspa</title><g id="Layer_2" data-name="Layer 2"><g id="Layer_1-2" data-name="Layer 1"><rect class="cls-1" width="996" height="996"/><path d="M265.09,588.66l-131.67-3.91c0-2,0-3.58,0-5.19q1.67-88.45,3.26-176.92c.06-3.66.9-5,4.89-4.84,41,1.38,81.93,2.55,122.89,3.79,1.08,0,2.16.17,3.85.32C267.24,464,266.17,525.94,265.09,588.66Zm-30.71-71.74c-1.47,3.77-2.51,7.07-4,10.14a54.15,54.15,0,0,1-5.39,8.83c-5.88,7.67-14,10.13-22.86,7.17-8.46-2.82-13.71-9-17.35-16.84-6.66-14.28-7.38-29.38-5.93-44.72,1-10.79,4-21,10.73-29.67,6.32-8.1,14.78-12.19,25.16-10.37s14.51,9.68,17,18.83c.33,1.2.47,2.44.77,3.65s.66,2.27,1.05,3.56l16.07-3.72c-1.47-10.67-4.5-20.23-10.46-28.63-12.91-18.2-37.34-21.07-54.27-6.49-7.75,6.68-12.7,15.28-16.44,24.62-6.7,16.72-7.8,34.16-6.09,51.86,1.57,16.24,6.16,31.45,15.91,44.83,14.38,19.75,41.56,21.61,57.08,3.8,6.86-7.88,10.76-17.35,13.82-27.18a3.58,3.58,0,0,0-1.29-3.17C243.6,521.15,239.18,519.19,234.38,516.92Z"/><path d="M297.47,577.84V393.74h135v184.1ZM354,441.29c-.48,1.89-.67,2.83-1,3.74q-7.57,24.38-15.15,48.74c-6.1,19.55-12.25,39.07-18.24,58.65-.36,1.18.07,3.48.91,4,3.76,2.3,7.8,4.14,12.1,6.33.55-1.57,1-2.83,1.43-4.12,3.3-10.56,6.64-21.11,9.82-31.71.76-2.52,2-3.47,4.69-3.44,13.29.13,26.59.11,39.88,0,2.52,0,3.67.88,4.4,3.26,3.36,11,6.87,21.91,10.35,32.85.36,1.12.84,2.2,1.33,3.49l13.58-7.16c-.43-1.51-.74-2.7-1.1-3.87q-19.69-63.42-39.34-126.84c-.75-2.45-1.89-3.2-4.37-3.19-12.88,0-25.76-.08-38.63-.14h-7v9.95c0,9.46,0,9.46,9.26,9.46Z"/><path d="M731.11,393.41h5c41.94.07,83.88.19,125.83.13,3.59,0,4.69.85,4.68,4.59q-.27,87.83-.22,175.65c0,3.31-.72,4.56-4.31,4.55Q798.31,578,734.57,578c-1.07,0-2.14-.18-3.46-.29ZM837.89,563.17c4.23-2.18,7.75-4.1,11.37-5.81,2-.94,2.53-2,1.79-4.21-2.06-6.15-3.88-12.4-5.81-18.6-11-35.53-22.13-71-33-106.61-1.33-4.36-3-6.55-7.89-6-4.23.49-8.57,0-12.86,0-9.93,0-19.85,0-30,0v19.39h26.08c-.36,1.54-.51,2.46-.78,3.35q-9,28.92-18,57.83c-5.15,16.5-10.37,33-15.46,49.5-.39,1.26-.52,3.64.1,4,4.1,2.4,8.44,4.39,12.88,6.61.54-1.34.9-2.08,1.14-2.85,3.36-10.83,6.76-21.64,10-32.51.76-2.53,1.66-3.89,4.73-3.84,13.28.19,26.57.14,39.86,0,2.55,0,3.69.88,4.38,3.25,1.57,5.45,3.38,10.83,5.09,16.23C833.59,549.52,835.66,556.08,837.89,563.17Z"/><path d="M695.35,392.54c1.07,12.31,2.1,24,3.11,35.73Q704.31,496.13,710.2,564c.26,3-.13,4.46-3.53,4.92Q649.29,576.76,592,584.84c-1.21.16-2.43.19-4.17.32-.43-4.41-.88-8.61-1.23-12.83q-4.78-56.26-9.53-112.54c-1.32-15.45-2.65-30.9-4.14-46.33-.29-3,.15-4.45,3.57-4.9,30.17-4,60.33-8.26,90.49-12.4,7.81-1.08,15.63-2.11,23.45-3.14C691.87,392.83,693.36,392.73,695.35,392.54ZM625.64,503.75c10.88-2.74,21.24-4.67,31.13-8,12.59-4.25,20.27-13.48,23-26.65a61.84,61.84,0,0,0-.16-24.73c-3.63-18.46-15.66-29-34.53-28.84-10.31.11-20.61,1.94-30.9,3.19-7.08.87-14.13,2.08-21.54,3.19.69,7.31,1.33,14.12,2,21l8.78-.93c3.37,39.38,6.71,78.32,10.08,117.66l16.75-2.46C628.65,538.93,627.12,521.05,625.64,503.75Z"/><path d="M540.52,607.46l-21-2.45c-22.82-2.67-45.63-5.39-68.47-8-3.09-.34-4.22-1.12-4-4.53q5.63-75,11-150c.23-3.14.43-6.29.67-10,4.47.48,8.55.88,12.62,1.36q37.95,4.44,75.89,8.88c5.33.62,5.32.57,4.92,6.08q-5.45,75.39-10.88,150.79C541.11,602,540.83,604.37,540.52,607.46Zm-71.94-79c-1.68,12.06,5.89,26.08,17.06,32.07,15.13,8.1,33.3.69,38.05-15.77,4.08-14.13,2.75-28.7-14.82-37.32a150.48,150.48,0,0,1-19.34-11.27c-7.67-5.31-9.83-13.58-6.4-21.16,3.28-7.24,10.79-11.47,19.33-10.89s13.78,4.72,16.27,13c.7,2.33,1.13,4.75,1.78,7.52l8.48-1.85c-2.12-6.08-3.32-12-6.14-17.09-7.93-14.15-29.78-17.13-41.19-6.07C469,471.92,471.11,495.89,486,505.39c7.57,4.84,15.55,9.06,23.11,13.91s9.83,12.76,6.6,21.89a18.07,18.07,0,0,1-18.37,12.11c-10.68-.68-19.17-8.79-20.76-19.84-.25-1.73-.49-3.46-.78-5.48Z"/><path d="M385.87,504.08H351.1c5.73-18.1,11.37-35.9,17-53.7h1C374.64,468.1,380.17,485.82,385.87,504.08Z"/><path d="M802.78,450.58l16.55,53.33h-34.6l16.89-53.48Z"/><path d="M623.72,481.22c-1.16-14-2.29-27.69-3.48-42,11-1.64,21.75-4.81,32.74-1.12,7.78,2.62,10.42,9.08,11,16.54.67,8.78-2.52,16.23-10.62,19.9-6.43,2.91-13.64,4.18-20.57,5.88C630,481.09,627.06,481,623.72,481.22Z"/></g></g></svg>