<svg xmlns="http://www.w3.org/2000/svg" viewBox="0 0 591.31 84.34"><defs><style>.cls-1{fill:#fff;}</style></defs><title>secondary_white</title><g id="Layer_2" data-name="Layer 2"><g id="Secondary_-_White" data-name="Secondary - White"><g id="Layer_16" data-name="Layer 16"><path class="cls-1" d="M152.06,27a8.2,8.2,0,0,0-4.81,1.22,4.23,4.23,0,0,0-1.72,3.69,4.85,4.85,0,0,0,2.49,4,31,31,0,0,0,6.63,3.26,28.26,28.26,0,0,1,5.75,2.81,12.65,12.65,0,0,1,4,4.37,14.13,14.13,0,0,1,1.58,7,12.9,12.9,0,0,1-1.9,6.82,13.33,13.33,0,0,1-5.59,5A19.45,19.45,0,0,1,149.67,67a29.37,29.37,0,0,1-8.47-1.26,26.55,26.55,0,0,1-7.81-3.84l4.13-7.3a22.89,22.89,0,0,0,5.62,3,16.85,16.85,0,0,0,5.69,1.16A10.23,10.23,0,0,0,154,57.42a4.38,4.38,0,0,0,2.2-4.1q0-3.69-6.92-6.4a61.06,61.06,0,0,1-6.78-3.1,14,14,0,0,1-4.69-4.26,11.81,11.81,0,0,1-2-7,12.87,12.87,0,0,1,4-9.89q4-3.75,10.76-4.07a28,28,0,0,1,8.85,1.2,30,30,0,0,1,6.92,3.39l-3.56,7.17Q156.66,27,152.06,27Z"/><path class="cls-1" d="M184.5,18.88V66.44h-9.37V18.88Z"/><path class="cls-1" d="M206.14,18.88V57.39H228.5v9H196.77V18.88Z"/><path class="cls-1" d="M267.85,18.88,246.14,68.63,224.43,18.88h11.24l10.86,26.81,10.21-26.81Z"/><path class="cls-1" d="M308.49,18.88v9H285.42V38.07h20.42v9H285.42V57.39h24v9H276.06V18.88Z"/><path class="cls-1" d="M344.74,66.44l-10-15.12h-6.27V66.44h-9.37V18.88H333.5q8.85,0,13.73,4.3t4.88,11.72a18.93,18.93,0,0,1-1.84,8.24,13.64,13.64,0,0,1-5.66,6l11.05,17.26ZM328.46,42.27h6.65q3.83,0,5.56-2.23a7.67,7.67,0,0,0,1.74-4.81,9.16,9.16,0,0,0-1.48-4.95q-1.49-2.36-5.75-2.36h-6.72Z"/><path class="cls-1" d="M391.72,65.47a24.23,24.23,0,0,1-8.6,1.48,25,25,0,0,1-12.92-3.23A21.85,21.85,0,0,1,361.8,55a25.07,25.07,0,0,1-2.91-12,27.42,27.42,0,0,1,2.91-12.79,21.37,21.37,0,0,1,8.14-8.75A23.07,23.07,0,0,1,382,18.36a26.71,26.71,0,0,1,8,1.16,28.29,28.29,0,0,1,6.46,2.91l-3.68,8.86a17.15,17.15,0,0,0-10.47-3.88,12.5,12.5,0,0,0-6.79,2,14.58,14.58,0,0,0-5,5.46,15.82,15.82,0,0,0-1.87,7.66,17.63,17.63,0,0,0,1.74,8,12.94,12.94,0,0,0,5,5.4,14.41,14.41,0,0,0,7.56,1.94,16.64,16.64,0,0,0,6.27-1.13,13.83,13.83,0,0,0,4.39-2.69l3.88,8.4A20.94,20.94,0,0,1,391.72,65.47Z"/><path class="cls-1" d="M416.2,18.88V57.39h22.36v9H406.83V18.88Z"/><path class="cls-1" d="M447.32,30.64a24.58,24.58,0,0,1,8.85-8.95,23.7,23.7,0,0,1,24.23,0,25.16,25.16,0,0,1,8.92,9,23.7,23.7,0,0,1,0,24.23,24.88,24.88,0,0,1-8.92,8.82,24.2,24.2,0,0,1-24.26,0,24.37,24.37,0,0,1-8.82-8.82,24.08,24.08,0,0,1,0-24.23Zm8.4,19.71a14.87,14.87,0,0,0,5.36,5.52,14.32,14.32,0,0,0,7.53,2,13.6,13.6,0,0,0,7.3-2,14.44,14.44,0,0,0,5.17-5.49A15.82,15.82,0,0,0,483,42.72,15.59,15.59,0,0,0,481,35a14.72,14.72,0,0,0-5.26-5.53,14.5,14.5,0,0,0-14.8,0A14.82,14.82,0,0,0,455.68,35a15.69,15.69,0,0,0-1.93,7.75A15.2,15.2,0,0,0,455.72,50.35Z"/><path class="cls-1" d="M511.77,53.19a10.36,10.36,0,0,0,3.62,3.36,9.62,9.62,0,0,0,4.85,1.29,10.34,10.34,0,0,0,5.1-1.29A10,10,0,0,0,529,53.19a7.94,7.94,0,0,0,1.33-4.33v-30h9.24V49.05A16.92,16.92,0,0,1,537,58.26a17.75,17.75,0,0,1-7,6.4,21.73,21.73,0,0,1-19.42,0,17.56,17.56,0,0,1-6.94-6.4A17.07,17.07,0,0,1,501,49.05V18.88h9.37v30A7.81,7.81,0,0,0,511.77,53.19Z"/><path class="cls-1" d="M550.86,18.88h14.22q9.1,0,15,3.52a21.37,21.37,0,0,1,8.56,9.11,27.33,27.33,0,0,1,2.68,12,22.48,22.48,0,0,1-3.23,12.08,21.64,21.64,0,0,1-8.69,8,25.75,25.75,0,0,1-12,2.82H550.86Zm14.93,38.51q7.31,0,11.56-3.75t4.27-10.79q0-5.68-2.36-9.05a12.72,12.72,0,0,0-5.49-4.65,15.57,15.57,0,0,0-5.91-1.29h-7.63V57.39Z"/><path class="cls-1" d="M112.38,55.14c0,16.11-13.34,29.2-29.73,29.2A29.71,29.71,0,0,1,59,72.78a3.26,3.26,0,0,1,5.16-4,23.22,23.22,0,0,0,18.53,9c12.8,0,23.21-10.18,23.21-22.69S95.45,32.46,82.65,32.46s-23.2,10.18-23.2,22.68c0,16.11-13.34,29.2-29.73,29.2S0,71.25,0,55.14A29.22,29.22,0,0,1,17.55,28.5a3.26,3.26,0,1,1,2.63,6A22.71,22.71,0,0,0,6.51,55.14c0,12.51,10.41,22.69,23.21,22.69S52.93,67.65,52.93,55.14c0-16.1,13.33-29.2,29.72-29.2S112.38,39,112.38,55.14Z"/><path class="cls-1" d="M81.82,22a3.26,3.26,0,0,1-4.29-1.68A23.22,23.22,0,0,0,56.19,6.52C43.39,6.52,33,16.69,33,29.2a22.46,22.46,0,0,0,8.13,17.25,3.26,3.26,0,1,1-4.18,5A29,29,0,0,1,26.46,29.2C26.46,13.1,39.8,0,56.19,0A29.75,29.75,0,0,1,83.5,17.65,3.27,3.27,0,0,1,81.82,22Z"/></g></g></g></svg>